<?xml version="1.0" encoding="utf-8"?>
<!-- Generator: Adobe Illustrator 17.0.0, SVG Export Plug-In . SVG Version: 6.00 Build 0)  -->
<!DOCTYPE svg PUBLIC "-//W3C//DTD SVG 1.1//EN" "http://www.w3.org/Graphics/SVG/1.1/DTD/svg11.dtd">
<svg version="1.1" id="Layer_1" xmlns="http://www.w3.org/2000/svg" xmlns:xlink="http://www.w3.org/1999/xlink" x="0px" y="0px"
	 width="683px" height="715.029px" viewBox="0 0 683 715.029" enable-background="new 0 0 683 715.029" xml:space="preserve">
<g>
	<defs>
		<rect id="SVGID_1_" x="0" y="0" width="683" height="715.029"/>
	</defs>
	<clipPath id="SVGID_2_">
		<use xlink:href="#SVGID_1_"  overflow="visible"/>
	</clipPath>
	<g clip-path="url(#SVGID_2_)">
		<path fill="#C6C6C5" d="M260.059,151.448v145.514l-82.792-145.514H260.059 M262.411,149.096h-89.188l89.188,156.755V149.096
			L262.411,149.096z"/>
		<path fill="#C6C6C5" d="M537.682,421.48v401l-228.155-401H537.682 M540.034,419.128H305.483L540.034,831.37V419.128
			L540.034,419.128z"/>
		<path fill="#C6C6C5" d="M263.506,310.236l82.792,145.514h-82.792V310.236 M261.155,301.346v156.755h89.188L261.155,301.346
			L261.155,301.346z"/>
		<path fill="#C6C6C5" d="M62.203-24.11l118.091,207.553H62.203V-24.11 M59.851-33v218.795h124.487L59.851-33L59.851-33z"/>
		<path fill="#C6C6C5" d="M239.936,448.171v42.558l-24.214-42.558H239.936 M242.288,445.819h-30.61l30.61,53.799V445.819
			L242.288,445.819z"/>
		<g opacity="0.3">
			<polygon fill="#C2C3B7" points="190.974,534.732 92.321,361.341 190.974,361.341 			"/>
			<path fill="#818F8A" d="M188.622,363.693v162.149L96.365,363.693H188.622 M190.974,361.341H92.321l98.654,173.391V361.341
				L190.974,361.341z"/>
		</g>
		<g opacity="0.6">
			<polygon fill="#E42320" points="513.547,390.94 458.697,294.537 513.547,294.537 			"/>
			<path fill="#1D1D1B" d="M511.196,296.889v85.162l-48.454-85.162H511.196 M513.547,294.537h-54.85l54.85,96.403V294.537
				L513.547,294.537z"/>
		</g>
		<g opacity="0.6">
			<polygon fill="#C2C3B7" points="335.038,175.389 365.648,229.188 335.038,229.188 			"/>
			<path fill="#818F8A" d="M337.39,184.279l24.214,42.558H337.39V184.279 M335.038,175.389v53.799h30.61L335.038,175.389
				L335.038,175.389z"/>
		</g>
		<g opacity="0.6">
			<polygon fill="#C2C3B7" points="513.547,257.389 534.684,294.537 513.547,294.537 			"/>
			<path fill="#818F8A" d="M515.899,266.278l14.74,25.907h-14.74V266.278 M513.547,257.389v37.149h21.136L513.547,257.389
				L513.547,257.389z"/>
		</g>
		<g opacity="0.6">
			<polygon fill="#C2C3B7" points="365.648,165.7 386.465,202.289 365.648,202.289 			"/>
			<path fill="#818F8A" d="M368,174.59l14.421,25.346H368V174.59 M365.648,165.7v36.588h20.817L365.648,165.7L365.648,165.7z"/>
		</g>
		<path fill="#C6C6C5" d="M156.508,332.192l48.125,84.584h-48.125V332.192 M154.156,323.302v95.826h54.521L154.156,323.302
			L154.156,323.302z"/>
		
			<rect x="305.695" y="461.542" transform="matrix(0.4998 0.8661 -0.8661 0.4998 618.7493 -143.322)" fill="#808E8A" width="255.531" height="4.999"/>
		<path fill="#A91917" d="M528.04,575.456l-2.582-4.475l2.598-1.5l2.582,4.475L528.04,575.456z M520.96,563.187l-5.997-10.394
			l2.598-1.5l5.997,10.394L520.96,563.187z M510.465,544.997l-5.998-10.394l2.598-1.5l5.998,10.394L510.465,544.997z
			 M499.969,526.809l-5.997-10.394l2.598-1.5l5.997,10.394L499.969,526.809z M489.474,508.619l-5.998-10.394l2.598-1.5l5.998,10.394
			L489.474,508.619z M478.978,490.431l-5.997-10.395l2.598-1.5l5.997,10.395L478.978,490.431z M468.482,472.241l-5.998-10.394
			l2.598-1.5l5.998,10.394L468.482,472.241z M457.986,454.052l-5.997-10.394l2.598-1.5l5.997,10.394L457.986,454.052z
			 M447.491,435.863l-5.998-10.394l2.598-1.5l5.998,10.394L447.491,435.863z M436.995,417.674l-5.997-10.394l2.598-1.5l5.997,10.394
			L436.995,417.674z M426.499,399.484l-5.997-10.394l2.598-1.499l5.997,10.394L426.499,399.484z"/>
	</g>
	<g clip-path="url(#SVGID_2_)">
		<rect x="60" y="303" fill="#FFFFFF" width="6" height="1"/>
		<path fill="#FFFFFF" d="M642,304h-12v-1h12V304z M618,304h-12v-1h12V304z M594,304h-12v-1h12V304z M570,304h-12v-1h12V304z
			 M546,304h-12v-1h12V304z M522,304h-12v-1h12V304z M498,304h-12v-1h12V304z M474,304h-12v-1h12V304z M450,304h-12v-1h12V304z
			 M426,304h-12v-1h12V304z M402,304h-12v-1h12V304z M378,304h-12v-1h12V304z M354,304h-12v-1h12V304z M330,304h-12v-1h12V304z
			 M306,304h-12v-1h12V304z M282,304h-12v-1h12V304z M258,304h-12v-1h12V304z M234,304h-12v-1h12V304z M210,304h-12v-1h12V304z
			 M186,304h-12v-1h12V304z M162,304h-12v-1h12V304z M138,304h-12v-1h12V304z M114,304h-12v-1h12V304z M90,304H78v-1h12V304z"/>
		<rect x="655" y="303" fill="#FFFFFF" width="6" height="1"/>
	</g>
</g>
</svg>
