<?xml version="1.0" encoding="utf-8"?>
<!-- Generator: Adobe Illustrator 17.0.0, SVG Export Plug-In . SVG Version: 6.00 Build 0)  -->
<!DOCTYPE svg PUBLIC "-//W3C//DTD SVG 1.1//EN" "http://www.w3.org/Graphics/SVG/1.1/DTD/svg11.dtd">
<svg version="1.1" id="Layer_1" xmlns="http://www.w3.org/2000/svg" xmlns:xlink="http://www.w3.org/1999/xlink" x="0px" y="0px"
	 width="130px" height="90px" viewBox="0 0 130 90" enable-background="new 0 0 130 90" xml:space="preserve">
<path fill-rule="evenodd" clip-rule="evenodd" fill="#FFFFFF" d="M128.439,77.28c0-0.444-0.102-0.788-0.306-1.032
	c-0.204-0.246-0.441-0.368-0.708-0.368c-0.254,0-0.467,0.1-0.634,0.301c-0.168,0.201-0.252,0.53-0.252,0.988
	c0,0.463,0.092,0.804,0.274,1.019c0.183,0.217,0.411,0.326,0.685,0.326c0.264,0,0.488-0.104,0.669-0.313
	C128.349,77.993,128.439,77.685,128.439,77.28L128.439,77.28z M125.324,80.286l1.331-0.147c0.034,0.271,0.119,0.471,0.256,0.601
	c0.137,0.131,0.318,0.196,0.543,0.196c0.284,0,0.525-0.131,0.724-0.392c0.2-0.261,0.327-0.802,0.383-1.625
	c-0.347,0.403-0.779,0.604-1.297,0.604c-0.565,0-1.053-0.219-1.463-0.654c-0.409-0.436-0.614-1.002-0.614-1.701
	c0-0.729,0.217-1.315,0.65-1.761c0.431-0.444,0.983-0.668,1.651-0.668c0.728,0,1.325,0.283,1.793,0.845
	c0.466,0.563,0.7,1.489,0.7,2.777c0,1.313-0.244,2.259-0.73,2.84c-0.487,0.579-1.12,0.87-1.9,0.87c-0.561,0-1.014-0.148-1.36-0.447
	C125.645,81.326,125.423,80.879,125.324,80.286L125.324,80.286z M119.671,80.041l1.33-0.161c0.044,0.339,0.157,0.598,0.344,0.776
	c0.185,0.181,0.411,0.271,0.675,0.271c0.284,0,0.523-0.108,0.717-0.324c0.194-0.215,0.291-0.504,0.291-0.87
	c0-0.345-0.092-0.62-0.279-0.822c-0.185-0.204-0.413-0.304-0.681-0.304c-0.175,0-0.385,0.034-0.631,0.102l0.153-1.12
	c0.372,0.008,0.656-0.071,0.852-0.242c0.195-0.172,0.294-0.399,0.294-0.683c0-0.242-0.072-0.435-0.216-0.578
	c-0.144-0.144-0.336-0.216-0.573-0.216c-0.236,0-0.436,0.082-0.602,0.245c-0.167,0.162-0.269,0.401-0.305,0.714l-1.268-0.214
	c0.089-0.434,0.221-0.781,0.399-1.041c0.177-0.259,0.426-0.463,0.744-0.611c0.319-0.149,0.675-0.224,1.07-0.224
	c0.676,0,1.217,0.216,1.625,0.646c0.336,0.353,0.504,0.751,0.504,1.195c0,0.63-0.344,1.134-1.033,1.507
	c0.411,0.089,0.739,0.286,0.986,0.593c0.245,0.306,0.37,0.677,0.37,1.112c0,0.629-0.231,1.166-0.691,1.611
	c-0.459,0.443-1.032,0.664-1.718,0.664c-0.649,0-1.188-0.187-1.615-0.559C119.987,81.133,119.739,80.646,119.671,80.041
	L119.671,80.041z M114.095,80.041l1.33-0.161c0.043,0.339,0.157,0.598,0.344,0.776c0.186,0.181,0.411,0.271,0.675,0.271
	c0.284,0,0.523-0.108,0.716-0.324c0.194-0.215,0.292-0.504,0.292-0.87c0-0.345-0.092-0.62-0.279-0.822
	c-0.186-0.204-0.413-0.304-0.68-0.304c-0.175,0-0.386,0.034-0.632,0.102l0.153-1.12c0.373,0.008,0.656-0.071,0.852-0.242
	c0.196-0.172,0.294-0.399,0.294-0.683c0-0.242-0.072-0.435-0.215-0.578c-0.144-0.144-0.336-0.216-0.573-0.216
	c-0.236,0-0.436,0.082-0.602,0.245c-0.167,0.162-0.269,0.401-0.304,0.714l-1.268-0.214c0.089-0.434,0.22-0.781,0.399-1.041
	c0.177-0.259,0.426-0.463,0.744-0.611c0.319-0.149,0.675-0.224,1.07-0.224c0.676,0,1.217,0.216,1.625,0.646
	c0.337,0.353,0.504,0.751,0.504,1.195c0,0.63-0.344,1.134-1.033,1.507c0.412,0.089,0.739,0.286,0.986,0.593
	c0.245,0.306,0.37,0.677,0.37,1.112c0,0.629-0.231,1.166-0.691,1.611c-0.46,0.443-1.033,0.664-1.718,0.664
	c-0.649,0-1.188-0.187-1.615-0.559C114.411,81.133,114.163,80.646,114.095,80.041L114.095,80.041z M33.57,68.712
	c6.196-0.111,10.86-4.775,10.971-10.971c-0.111-6.197-4.775-10.86-10.971-10.972c-6.196,0.112-10.861,4.775-10.971,10.972
	C22.709,63.937,27.373,68.601,33.57,68.712L33.57,68.712z M3.124,45c0.107,3.103,0.31,5.295,1.178,8.33
	c4.195,14.663,18.487,24.624,32.307,29.364c7.254,2.488,15.182,3.876,22.84,4.15l3.082,0.05c6.336-0.104,11.571-0.532,17.792-1.911
	c5.164-1.145,10.477-2.918,15.514-5.332c2.526-3.241,4.024-6.5,5.268-10.461c2.842-9.057,3.929-23.965-2.031-31.892
	c-1.12-1.489-2.102-2.265-3.636-3.227c-4.178-2.482-7.1-5.998-9.78-10.016c-4.061-6.089-7.199-13.052-9.842-19.89
	c-3.401-0.552-6.829-0.889-10.204-1.01l-3.082-0.051c-6.337,0.104-11.57,0.532-17.791,1.911c-4.617,1.024-9.353,2.549-13.904,4.586
	c1.67,6.605,3.057,12.135,3.914,19.375c1.861-7.605,4.641-13.888,7.696-20.822c1.52,13.074,2.366,24.698-0.274,38.034L42.1,46.538
	c0.49,0.376,0.965,0.792,1.423,1.25c0.282,0.283,0.549,0.571,0.799,0.866c11.544-9.252,24.911-16.588,40.27-14.524
	c1.653,0.222,1.255,0.096,2.455,0.861c3.505,5.264,5.326,10.899,6.096,17.164c1.037,8.444,0.027,18.021-3.639,25.762
	c-0.663,1.401-0.455,1.093-1.471,1.971c-4.149,1.299-7.54,1.705-11.907,1.457c-11.729-0.668-24.129-6.14-34.465-12.075
	c-2.359,1.666-5.072,2.455-8.09,2.549c-3.848-0.119-7.199-1.369-9.953-4.123c-2.755-2.755-4.004-6.105-4.124-9.953
	c0.12-3.848,1.368-7.199,4.124-9.953c0.618-0.619,1.267-1.161,1.944-1.631l0,0c-1.395-14.339,0.979-23.983,4.51-36.206
	C20.306,14.466,11.48,21.366,6.648,30.766c-1.893,3.683-3.159,7.972-3.45,12.107L3.124,45L3.124,45z M105.948,73.566
	c5.165-3.881,9.546-8.65,12.467-14.332c1.893-3.683,3.159-7.973,3.45-12.107L121.938,45c-0.107-3.104-0.31-5.296-1.178-8.331
	c-3.55-12.406-14.328-21.447-25.932-26.806c2.868,7.786,6.511,17.228,12.651,21.919l0.64,0.471c1.525,1.182,2.639,2.084,3.838,3.671
	c6.929,9.166,2.619,23.303-2.541,32.334C108.414,70.014,107.243,71.821,105.948,73.566L105.948,73.566z M90.929,8.209
	c-0.826-0.32-1.651-0.622-2.475-0.904c-2.928-1.005-5.968-1.83-9.055-2.475c3.512,8.766,9.656,21.592,16.849,26.122l0.681,0.401
	c1.481,0.933,2.4,1.548,3.621,2.881c7.477,8.163,6.745,24.157,4.024,34.114c-0.292,1.072-0.631,2.17-1.016,3.269
	c0.785-1.066,1.534-2.184,2.262-3.363c4.966-8.033,10.039-22.002,3.664-30.464c-0.978-1.297-1.891-2.035-3.135-3.004
	c-6.23-4.522-9.419-11.223-12.241-18.214L90.929,8.209L90.929,8.209z M62.531,0c6.675,0.131,11.896,0.541,18.459,1.996
	c15.767,3.496,32.55,12.494,40.178,27.363c2.094,4.082,3.462,8.714,3.79,13.296L125.043,45c-0.093,2.552-0.195,4.396-0.738,6.937
	c-3.195,14.942-16.063,25.798-29.554,31.638c-9.072,3.927-19.165,6.002-29.028,6.361L62.531,90
	c-6.675-0.131-11.895-0.541-18.459-1.996C28.306,84.508,11.521,75.509,3.895,60.64c-2.094-4.082-3.462-8.713-3.79-13.295L0.019,45
	c0.093-2.553,0.196-4.397,0.739-6.938C3.953,23.12,16.821,12.264,30.311,6.424c9.072-3.927,19.166-6.002,29.029-6.362L62.531,0
	L62.531,0z M88.622,71.516l-43.15-6.245c-0.4,0.632-0.859,1.239-1.38,1.821c11.926,6.709,28.911,13.889,41.703,10.254l0.641-0.204
	C87.317,75.307,88.042,73.429,88.622,71.516L88.622,71.516z M46.863,62.339l42.548,6.157c0.785-3.554,1.103-7.212,1.027-10.926
	l-42.986,2.322C47.32,60.736,47.126,61.552,46.863,62.339L46.863,62.339z M47.592,56.787l42.689-2.306
	c-0.287-3.585-1.032-7.399-2.316-10.942l-41.023,9.848C47.282,54.469,47.494,55.603,47.592,56.787L47.592,56.787z M39.513,55.262
	c1.369,0,2.479,1.111,2.479,2.479c0,1.368-1.11,2.478-2.479,2.478c-1.368,0-2.478-1.11-2.478-2.478
	C37.034,56.372,38.145,55.262,39.513,55.262L39.513,55.262z M33.57,61.205c1.369,0,2.478,1.11,2.478,2.479
	c0,1.368-1.109,2.478-2.478,2.478s-2.479-1.11-2.479-2.478C31.091,62.315,32.201,61.205,33.57,61.205L33.57,61.205z M33.57,49.319
	c1.369,0,2.478,1.11,2.478,2.478c0,1.369-1.109,2.479-2.478,2.479s-2.479-1.11-2.479-2.479
	C31.091,50.429,32.201,49.319,33.57,49.319L33.57,49.319z M27.627,55.262c1.368,0,2.478,1.111,2.478,2.479
	c0,1.368-1.11,2.478-2.478,2.478c-1.368,0-2.478-1.11-2.478-2.478C25.149,56.372,26.258,55.262,27.627,55.262L27.627,55.262z
	 M86.762,40.644c-0.476-1.003-1.002-1.969-1.581-2.886l-0.297-0.45c-7.097-0.993-13.36-0.163-20.108,2.474
	c-6.352,2.483-11.944,6.124-17.252,10.281L86.762,40.644L86.762,40.644z M40.595,20.572c0.128,2.395,0.244,4.82,0.24,7.215
	c-0.008,4.847-0.297,9.627-1.058,14.219c-0.08,0.482-0.419,2.384-0.512,2.861c-0.254-0.132-1.028-0.421-1.817-0.639
	c-0.715-0.197-1.445-0.329-1.744-0.371c0.196-4.138,0.714-8.297,1.649-12.362C38.176,27.647,39.28,24.024,40.595,20.572
	L40.595,20.572z M30.323,20.932c0.439,2.359,0.871,4.748,1.18,7.122c0.625,4.808,0.962,9.583,0.807,14.236
	c-0.017,0.488-0.014,0.975-0.044,1.461c-1.318,0.132-2.569,0.404-3.737,0.853c-0.345-4.129-0.392-8.266,0.005-12.419
	C28.848,28.262,29.47,24.528,30.323,20.932L30.323,20.932z"/>
</svg>
