<?xml version="1.0" encoding="utf-8"?>
<!-- Generator: Adobe Illustrator 17.0.0, SVG Export Plug-In . SVG Version: 6.00 Build 0)  -->
<!DOCTYPE svg PUBLIC "-//W3C//DTD SVG 1.1//EN" "http://www.w3.org/Graphics/SVG/1.1/DTD/svg11.dtd">
<svg version="1.1" id="Layer_1" xmlns="http://www.w3.org/2000/svg" xmlns:xlink="http://www.w3.org/1999/xlink" x="0px" y="0px"
	 width="683px" height="715px" viewBox="0 0 683 715" enable-background="new 0 0 683 715" xml:space="preserve">
<line opacity="0.5" fill="none" stroke="#22142E" stroke-width="3" stroke-miterlimit="10" stroke-dasharray="12,9" x1="485.948" y1="447.765" x2="189.136" y2="744.578"/>
<line opacity="0.5" fill="none" stroke="#22142E" stroke-width="3" stroke-miterlimit="10" stroke-dasharray="12,9" x1="486.04" y1="447.765" x2="782.852" y2="744.578"/>
<line opacity="0.5" fill="none" stroke="#22142E" stroke-width="3" stroke-miterlimit="10" stroke-dasharray="12,9" x1="80.062" y1="559.851" x2="-21.532" y2="682.169"/>
<line opacity="0.5" fill="none" stroke="#22142E" stroke-width="3" stroke-miterlimit="10" stroke-dasharray="12,9" x1="147.873" y1="608.076" x2="80.062" y2="559.851"/>
<line opacity="0.5" fill="none" stroke="#22142E" stroke-width="3" stroke-miterlimit="10" stroke-dasharray="12,9" x1="484.769" y1="448.945" x2="147.873" y2="608.076"/>
<line opacity="0.5" fill="none" stroke="#22142E" stroke-width="3" stroke-miterlimit="10" stroke-dasharray="12,9" x1="485.988" y1="447.811" x2="565.611" y2="744.97"/>
<circle opacity="0.5" fill="#D288B9" cx="486.04" cy="447.765" r="33.728"/>
<circle opacity="0.3" fill="#1DBBEE" cx="486.04" cy="447.765" r="192.72"/>
<path opacity="0.2" fill="none" stroke="#22142E" stroke-width="3" stroke-miterlimit="10" d="M666.497,78.023
	C610.753,50.42,547.958,34.906,481.54,34.906c-165.473,0-308.455,96.299-375.96,235.912"/>
<path opacity="0.2" fill="none" stroke="#22142E" stroke-width="3" stroke-miterlimit="10" d="M85.641,584.734
	c19.458,58.178,51.381,110.646,92.598,154.234"/>
<path opacity="0.2" fill="none" stroke="#22142E" stroke-width="3" stroke-miterlimit="10" d="M666.39,231.988
	c-48.821-40.849-111.714-65.438-180.35-65.438c-155.311,0-281.216,125.905-281.216,281.216c0,90.164,42.433,170.417,108.418,221.879
	"/>
<line opacity="0.5" fill="none" stroke="#D288B8" stroke-width="3" stroke-miterlimit="10" stroke-dasharray="12,9" x1="190.316" y1="-62.24" x2="484.768" y2="447.765"/>
<line opacity="0.5" fill="none" stroke="#D288B8" stroke-width="3" stroke-miterlimit="10" stroke-dasharray="12,9" x1="484.768" y1="447.765" x2="792.396" y2="143.571"/>
<circle fill="#D288B9" cx="486.04" cy="447.765" r="11.904"/>
<circle fill="#22112E" cx="147.873" cy="608.076" r="11.904"/>
<circle fill="#22112E" cx="80.062" cy="559.851" r="11.904"/>
</svg>
