<?xml version="1.0" encoding="utf-8"?>
<!-- Generator: Adobe Illustrator 17.0.0, SVG Export Plug-In . SVG Version: 6.00 Build 0)  -->
<!DOCTYPE svg PUBLIC "-//W3C//DTD SVG 1.1//EN" "http://www.w3.org/Graphics/SVG/1.1/DTD/svg11.dtd">
<svg version="1.1" id="Layer_1" xmlns="http://www.w3.org/2000/svg" xmlns:xlink="http://www.w3.org/1999/xlink" x="0px" y="0px"
	 width="683px" height="715px" viewBox="0 0 683 715" enable-background="new 0 0 683 715" xml:space="preserve">
<g>
	<g>
		<polygon fill="#05464F" stroke="#0099AE" stroke-width="3" stroke-miterlimit="10" points="496.621,540.488 516.979,505.226 
			496.621,469.963 455.904,469.963 435.545,505.226 455.904,540.488 		"/>
	</g>
	<g>
		<polygon fill="#E79C00" stroke="#0099AE" stroke-width="3" stroke-miterlimit="10" points="333.752,469.966 354.111,434.704 
			333.752,399.442 293.035,399.442 272.676,434.704 293.035,469.966 		"/>
	</g>
	
		<line fill="none" stroke="#0099AE" stroke-width="3" stroke-linejoin="round" stroke-miterlimit="10" x1="516.979" y1="505.226" x2="638.163" y2="715.122"/>
	
		<line fill="none" stroke="#0099AE" stroke-width="3" stroke-linejoin="round" stroke-miterlimit="10" x1="455.903" y1="540.481" x2="556.739" y2="715.133"/>
	<g>
		<polygon fill="none" stroke="#0099AE" stroke-width="3" stroke-linejoin="round" stroke-miterlimit="10" points="415.186,399.44 
			435.545,364.177 415.186,328.915 374.469,328.915 354.111,364.177 374.469,399.44 		"/>
		
			<line fill="none" stroke="#0099AE" stroke-width="3" stroke-linejoin="round" stroke-miterlimit="10" x1="354.111" y1="364.177" x2="374.469" y2="399.44"/>
	</g>
	<g>
		<polygon fill="none" stroke="#0099AE" stroke-width="3" stroke-linejoin="round" stroke-miterlimit="10" points="354.111,646.274 
			374.469,611.012 354.111,575.75 313.393,575.75 293.035,611.012 313.393,646.274 		"/>
		
			<line fill="none" stroke="#0099AE" stroke-width="3" stroke-linejoin="round" stroke-miterlimit="10" x1="293.035" y1="611.012" x2="313.393" y2="646.274"/>
	</g>
	<g>
		<polygon fill="none" stroke="#0099AE" stroke-width="3" stroke-linejoin="round" stroke-miterlimit="10" points="496.583,540.481 
			557.654,434.704 496.583,328.927 374.442,328.927 313.372,434.704 374.442,540.481 		"/>
		
			<line fill="none" stroke="#0099AE" stroke-width="3" stroke-linejoin="round" stroke-miterlimit="10" x1="313.372" y1="434.704" x2="374.442" y2="540.481"/>
	</g>
	<g>
		<polygon fill="none" stroke="#0099AE" stroke-width="3" stroke-linejoin="round" stroke-miterlimit="10" points="578.306,469.966 
			598.665,434.704 578.306,399.442 537.589,399.442 517.23,434.704 537.589,469.966 		"/>
		
			<line fill="none" stroke="#0099AE" stroke-width="3" stroke-linejoin="round" stroke-miterlimit="10" x1="517.23" y1="434.704" x2="537.589" y2="469.966"/>
	</g>
	<g>
		<polygon fill="none" stroke="#0099AE" stroke-width="3" stroke-linejoin="round" stroke-miterlimit="10" points="619.023,540.488 
			639.382,505.226 619.023,469.963 578.306,469.963 557.947,505.226 578.306,540.488 		"/>
		
			<line fill="none" stroke="#0099AE" stroke-width="3" stroke-linejoin="round" stroke-miterlimit="10" x1="557.947" y1="505.226" x2="578.306" y2="540.488"/>
	</g>
	<g>
		<polygon fill="none" stroke="#0099AE" stroke-width="3" stroke-linejoin="round" stroke-miterlimit="10" points="313.393,575.75 
			333.752,540.488 313.393,505.225 272.676,505.225 252.318,540.488 272.676,575.75 		"/>
		
			<line fill="none" stroke="#0099AE" stroke-width="3" stroke-linejoin="round" stroke-miterlimit="10" x1="252.318" y1="540.488" x2="272.676" y2="575.75"/>
	</g>
	<g>
		<polygon fill="none" stroke="#0099AE" stroke-width="3" stroke-linejoin="round" stroke-miterlimit="10" points="394.828,575.75 
			415.186,540.488 394.828,505.225 354.111,505.225 333.752,540.488 354.111,575.75 		"/>
		
			<line fill="none" stroke="#0099AE" stroke-width="3" stroke-linejoin="round" stroke-miterlimit="10" x1="333.752" y1="540.488" x2="354.111" y2="575.75"/>
	</g>
	<polygon fill="none" stroke="#0099AE" stroke-width="3" stroke-linejoin="round" stroke-miterlimit="10" points="455.904,399.439 
		415.186,328.915 394.828,293.653 354.111,293.653 333.752,328.915 354.111,364.177 394.828,434.701 415.186,469.963 
		455.904,469.963 476.262,434.701 	"/>
	<polygon fill="none" stroke="#0099AE" stroke-width="3" stroke-linejoin="round" stroke-miterlimit="10" points="619.023,399.439 
		537.589,399.439 496.872,399.439 476.513,434.701 496.872,469.964 537.589,469.964 619.023,469.963 659.74,469.963 
		680.099,434.701 659.74,399.439 	"/>
	<polygon fill="none" stroke="#0099AE" stroke-width="3" stroke-linejoin="round" stroke-miterlimit="10" points="354.111,505.225 
		394.828,434.701 415.186,399.439 455.904,399.439 476.262,434.701 455.904,469.964 415.186,540.488 394.828,575.75 354.111,575.75 
		333.752,540.488 	"/>
	<polygon fill="none" stroke="#0099AE" stroke-width="3" stroke-linejoin="round" stroke-miterlimit="10" points="476.262,223.129 
		516.979,152.605 517.23,152.604 557.947,152.604 578.306,187.867 578.055,187.867 537.338,258.391 516.979,293.653 
		476.262,293.653 455.904,258.391 	"/>
	<polygon fill="none" stroke="#0099AE" stroke-width="3" stroke-linejoin="round" stroke-miterlimit="10" points="537.585,328.924 
		578.302,258.4 578.553,258.4 619.27,258.4 639.629,293.662 639.378,293.662 598.661,364.186 578.302,399.449 537.585,399.449 
		517.226,364.186 	"/>
	<g>
		<polygon fill="none" stroke="#0099AE" stroke-width="3" stroke-linejoin="round" stroke-miterlimit="10" points="293.035,328.915 
			272.676,293.653 293.035,258.391 333.752,258.391 354.111,293.653 333.752,328.915 		"/>
		
			<line fill="none" stroke="#0099AE" stroke-width="3" stroke-linejoin="round" stroke-miterlimit="10" x1="333.752" y1="258.391" x2="293.035" y2="328.915"/>
		
			<line fill="none" stroke="#0099AE" stroke-width="3" stroke-linejoin="round" stroke-miterlimit="10" x1="354.111" y1="293.653" x2="333.752" y2="328.915"/>
		
			<line fill="none" stroke="#0099AE" stroke-width="3" stroke-linejoin="round" stroke-miterlimit="10" x1="343.931" y1="276.022" x2="313.393" y2="328.915"/>
	</g>
	<g>
		<polygon fill="none" stroke="#0099AE" stroke-width="3" stroke-linejoin="round" stroke-miterlimit="10" points="455.904,328.915 
			476.262,293.653 455.904,258.391 415.186,258.391 394.828,293.653 415.186,328.915 		"/>
		
			<line fill="none" stroke="#0099AE" stroke-width="3" stroke-linejoin="round" stroke-miterlimit="10" x1="415.186" y1="258.391" x2="455.904" y2="328.915"/>
		
			<line fill="none" stroke="#0099AE" stroke-width="3" stroke-linejoin="round" stroke-miterlimit="10" x1="394.828" y1="293.653" x2="415.186" y2="328.915"/>
		
			<line fill="none" stroke="#0099AE" stroke-width="3" stroke-linejoin="round" stroke-miterlimit="10" x1="405.007" y1="276.022" x2="435.545" y2="328.915"/>
	</g>
	<g>
		<polygon fill="none" stroke="#0099AE" stroke-width="3" stroke-linejoin="round" stroke-miterlimit="10" points="517.23,293.653 
			537.589,258.391 517.23,223.129 476.513,223.129 456.154,258.391 476.513,293.653 		"/>
		
			<line fill="none" stroke="#0099AE" stroke-width="3" stroke-linejoin="round" stroke-miterlimit="10" x1="476.513" y1="223.129" x2="517.23" y2="293.653"/>
		
			<line fill="none" stroke="#0099AE" stroke-width="3" stroke-linejoin="round" stroke-miterlimit="10" x1="456.154" y1="258.391" x2="476.513" y2="293.653"/>
		
			<line fill="none" stroke="#0099AE" stroke-width="3" stroke-linejoin="round" stroke-miterlimit="10" x1="466.334" y1="240.76" x2="496.872" y2="293.653"/>
	</g>
	<g>
		<polygon fill="none" stroke="#0099AE" stroke-width="3" stroke-linejoin="round" stroke-miterlimit="10" points="496.621,611.012 
			537.338,611.012 557.696,575.75 537.338,540.488 496.621,540.488 476.262,575.75 		"/>
		
			<line fill="none" stroke="#0099AE" stroke-width="3" stroke-linejoin="round" stroke-miterlimit="10" x1="537.338" y1="540.488" x2="496.621" y2="611.012"/>
		
			<line fill="none" stroke="#0099AE" stroke-width="3" stroke-linejoin="round" stroke-miterlimit="10" x1="496.621" y1="540.488" x2="476.262" y2="575.75"/>
		
			<line fill="none" stroke="#0099AE" stroke-width="3" stroke-linejoin="round" stroke-miterlimit="10" x1="516.979" y1="540.488" x2="486.441" y2="593.381"/>
	</g>
	<g>
		<polygon fill="none" stroke="#0099AE" stroke-width="3" stroke-linejoin="round" stroke-miterlimit="10" points="455.904,469.963 
			476.262,434.701 455.904,399.439 415.186,399.439 394.828,434.701 415.186,469.963 		"/>
		
			<line fill="none" stroke="#0099AE" stroke-width="3" stroke-linejoin="round" stroke-miterlimit="10" x1="415.186" y1="399.439" x2="455.904" y2="469.963"/>
		
			<line fill="none" stroke="#0099AE" stroke-width="3" stroke-linejoin="round" stroke-miterlimit="10" x1="394.828" y1="434.701" x2="415.186" y2="469.963"/>
		
			<line fill="none" stroke="#0099AE" stroke-width="3" stroke-linejoin="round" stroke-miterlimit="10" x1="405.007" y1="417.071" x2="435.545" y2="469.963"/>
	</g>
	<g>
		<polygon fill="none" stroke="#0099AE" stroke-width="3" stroke-linejoin="round" stroke-miterlimit="10" points="293.035,328.915 
			272.676,364.177 231.959,364.177 211.6,328.915 231.959,293.653 272.676,293.653 		"/>
		
			<line fill="none" stroke="#0099AE" stroke-width="3" stroke-linejoin="round" stroke-miterlimit="10" x1="211.6" y1="328.915" x2="293.035" y2="328.915"/>
		
			<line fill="none" stroke="#0099AE" stroke-width="3" stroke-linejoin="round" stroke-miterlimit="10" x1="231.959" y1="293.653" x2="272.676" y2="293.653"/>
		
			<line fill="none" stroke="#0099AE" stroke-width="3" stroke-linejoin="round" stroke-miterlimit="10" x1="221.78" y1="311.284" x2="282.856" y2="311.284"/>
	</g>
	<g>
		<polygon fill="none" stroke="#0099AE" stroke-width="3" stroke-linejoin="round" stroke-miterlimit="10" points="333.752,399.439 
			293.035,399.439 272.676,364.177 293.035,328.915 333.752,328.915 354.111,364.177 		"/>
		
			<line fill="none" stroke="#0099AE" stroke-width="3" stroke-linejoin="round" stroke-miterlimit="10" x1="293.035" y1="328.915" x2="333.752" y2="399.439"/>
		
			<line fill="none" stroke="#0099AE" stroke-width="3" stroke-linejoin="round" stroke-miterlimit="10" x1="333.752" y1="328.915" x2="354.111" y2="364.177"/>
		
			<line fill="none" stroke="#0099AE" stroke-width="3" stroke-linejoin="round" stroke-miterlimit="10" x1="313.394" y1="328.915" x2="343.931" y2="381.808"/>
	</g>
	
		<circle fill="none" stroke="#0099AE" stroke-width="3" stroke-linejoin="round" stroke-miterlimit="10" cx="394.828" cy="364.177" r="5.581"/>
	<g>
		<polygon fill="none" stroke="#0099AE" stroke-width="3" stroke-linejoin="round" stroke-miterlimit="10" points="619.023,328.915 
			639.382,293.653 619.023,258.391 578.306,258.391 557.948,293.653 578.306,328.915 		"/>
		
			<line fill="none" stroke="#0099AE" stroke-width="3" stroke-linejoin="round" stroke-miterlimit="10" x1="557.948" y1="293.653" x2="578.306" y2="328.915"/>
	</g>
	
		<circle fill="none" stroke="#0099AE" stroke-width="3" stroke-linejoin="round" stroke-miterlimit="10" cx="598.665" cy="293.653" r="5.581"/>
	
		<circle fill="none" stroke="#0099AE" stroke-width="3" stroke-linejoin="round" stroke-miterlimit="10" cx="226.735" cy="434.701" r="5.581"/>
	
		<circle fill="none" stroke="#0099AE" stroke-width="3" stroke-linejoin="round" stroke-miterlimit="10" cx="374.469" cy="258.391" r="5.581"/>
	
		<circle fill="none" stroke="#0099AE" stroke-width="3" stroke-linejoin="round" stroke-miterlimit="10" cx="476.262" cy="505.226" r="5.581"/>
	
		<circle fill="none" stroke="#0099AE" stroke-width="3" stroke-linejoin="round" stroke-miterlimit="10" cx="435.545" cy="223.129" r="5.581"/>
	
		<line fill="none" stroke="#0099AE" stroke-width="3" stroke-linejoin="round" stroke-miterlimit="10" x1="272.676" y1="434.701" x2="231.959" y2="434.701"/>
	
		<circle fill="none" stroke="#0099AE" stroke-width="3" stroke-linejoin="round" stroke-miterlimit="10" cx="642.088" cy="580.274" r="5.581"/>
	
		<line fill="none" stroke="#0099AE" stroke-width="3" stroke-linejoin="round" stroke-miterlimit="10" x1="619.118" y1="540.488" x2="639.477" y2="575.75"/>
	
		<circle fill="none" stroke="#0099AE" stroke-width="3" stroke-linejoin="round" stroke-miterlimit="10" cx="581.131" cy="112.511" r="5.581"/>
	
		<line fill="none" stroke="#0099AE" stroke-width="3" stroke-linejoin="round" stroke-miterlimit="10" x1="578.484" y1="117.342" x2="558.126" y2="152.604"/>
</g>
<g>
	<polygon fill="#64B880" stroke="#0099AE" stroke-width="3" stroke-miterlimit="10" points="517.179,364.088 537.486,328.915 
		517.179,293.742 476.564,293.742 456.257,328.915 476.564,364.088 	"/>
	
		<line fill="#F8F7F7" stroke="#0099AE" stroke-width="3" stroke-linejoin="round" stroke-miterlimit="10" x1="456.257" y1="328.915" x2="476.564" y2="364.088"/>
</g>
</svg>
